PathFileType	4	(X/Y/Z)	 New Session 106.trc
DataRate	CameraRate	NumFrames	NumMarkers	Units	OrigDataRate	OrigDataStartFrame	OrigNumFrames
100	100	19	14	m	100	453	724
Frame#	Time	C7			T8			IJ			PX			AA			AC			AI			TS			SC			GH			LE			ME			US			RS			
		X1	Y1	Z1	X2	Y2	Z2	X3	Y3	Z3	X4	Y4	Z4	X5	Y5	Z5	X6	Y6	Z6	X7	Y7	Z7	X8	Y8	Z8	X9	Y9	Z9	X10	Y10	Z10	X11	Y11	Z11	X12	Y12	Z12	X13	Y13	Z13	X14	Y14	Z14	
453	4.5300	-0.022411	0.109830	0.149037	0.003446	-0.105018	0.224989	-0.017332	-0.000496	-0.013906	0.002851	-0.144480	-0.073501	0.157533	0.077261	0.160464	0.108088	0.105566	0.082436	0.058410	0.048360	0.199104	0.083897	-0.073185	0.217777	0.005467	0.012874	-0.008499	0.154134	0.105294	0.125837	0.415646	0.086045	0.093771	0.436889	-0.007358	0.092421	0.546640	0.080215	-0.156227	0.475296	0.045243	-0.170688	
454	4.5400	-0.022157	0.109806	0.149022	0.003513	-0.105046	0.224995	-0.017236	-0.000442	-0.013782	0.002920	-0.144528	-0.073510	0.157920	0.076825	0.160559	0.108581	0.105171	0.082466	0.058597	0.048272	0.199162	0.083978	-0.073274	0.217856	0.005701	0.012629	-0.008454	0.154916	0.104798	0.125889	0.416483	0.082491	0.094065	0.436582	-0.011228	0.092390	0.547132	0.075497	-0.156166	0.475118	0.041812	-0.170646	
455	4.5500	-0.021913	0.109798	0.149004	0.003575	-0.105075	0.225005	-0.017168	-0.000380	-0.013632	0.002997	-0.144564	-0.073527	0.158391	0.076289	0.160608	0.109134	0.104784	0.082506	0.058762	0.048188	0.199232	0.084060	-0.073378	0.217962	0.005935	0.012433	-0.008493	0.155753	0.104213	0.125934	0.417312	0.078730	0.094343	0.436240	-0.015301	0.092300	0.547606	0.070363	-0.156122	0.474906	0.038172	-0.170643	
456	4.5600	-0.021679	0.109794	0.148999	0.003628	-0.105105	0.225020	-0.017101	-0.000351	-0.013486	0.003081	-0.144597	-0.073548	0.158971	0.075599	0.160559	0.109750	0.104410	0.082524	0.058945	0.048084	0.199305	0.084141	-0.073506	0.218115	0.006123	0.012372	-0.008542	0.156629	0.103543	0.125941	0.418108	0.074747	0.094568	0.435842	-0.019594	0.092182	0.547993	0.064885	-0.156075	0.474640	0.034328	-0.170678	
457	4.5700	-0.021443	0.109766	0.149013	0.003669	-0.105138	0.225041	-0.017035	-0.000372	-0.013360	0.003171	-0.144641	-0.073561	0.159604	0.074758	0.160416	0.110413	0.103988	0.082496	0.059161	0.047937	0.199384	0.084214	-0.073667	0.218322	0.006269	0.012404	-0.008551	0.157543	0.102801	0.125898	0.418863	0.070496	0.094713	0.435357	-0.024137	0.092075	0.548271	0.059157	-0.156036	0.474294	0.030286	-0.170754	
458	4.5800	-0.021193	0.109689	0.149053	0.003692	-0.105174	0.225069	-0.016973	-0.000440	-0.013260	0.003260	-0.144713	-0.073555	0.160252	0.073854	0.160276	0.111104	0.103424	0.082415	0.059428	0.047731	0.199448	0.084268	-0.073867	0.218570	0.006407	0.012431	-0.008526	0.158509	0.101990	0.125817	0.419591	0.065927	0.094797	0.434762	-0.028964	0.091994	0.548457	0.053246	-0.156033	0.473836	0.026057	-0.170878	
459	4.5900	-0.020929	0.109556	0.149124	0.003696	-0.105211	0.225108	-0.016903	-0.000540	-0.013199	0.003344	-0.144817	-0.073540	0.160961	0.072974	0.160280	0.111823	0.102677	0.082296	0.059739	0.047433	0.199436	0.084292	-0.074104	0.218833	0.006546	0.012397	-0.008495	0.159551	0.101102	0.125732	0.420325	0.061004	0.094873	0.434060	-0.034115	0.091919	0.548563	0.047156	-0.156101	0.473242	0.021641	-0.171064	
460	4.6000	-0.020668	0.109392	0.149217	0.003677	-0.105248	0.225161	-0.016807	-0.000645	-0.013185	0.003415	-0.144937	-0.073569	0.161757	0.072083	0.160435	0.112598	0.101800	0.082171	0.060028	0.047031	0.199323	0.084275	-0.074375	0.219086	0.006668	0.012295	-0.008466	0.160692	0.100119	0.125677	0.421104	0.055714	0.094995	0.433270	-0.039621	0.091801	0.548578	0.040849	-0.156260	0.472534	0.016997	-0.171305	
461	4.6100	-0.020435	0.109238	0.149313	0.003634	-0.105284	0.225234	-0.016690	-0.000738	-0.013199	0.003457	-0.145037	-0.073721	0.162571	0.071046	0.160565	0.113463	0.100889	0.082080	0.060324	0.046581	0.199196	0.084215	-0.074668	0.219319	0.006766	0.012155	-0.008437	0.161953	0.099013	0.125672	0.421939	0.050074	0.095181	0.432420	-0.045469	0.091565	0.548488	0.034278	-0.156506	0.471807	0.012021	-0.171551	
462	4.6200	-0.020237	0.109115	0.149394	0.003567	-0.105321	0.225327	-0.016554	-0.000812	-0.013218	0.003453	-0.145088	-0.074020	0.163357	0.069831	0.160604	0.114438	0.100005	0.082045	0.060715	0.046176	0.199142	0.084131	-0.074974	0.219550	0.006847	0.012024	-0.008405	0.163328	0.097757	0.125716	0.422803	0.044131	0.095404	0.431523	-0.051579	0.091164	0.548268	0.027351	-0.156824	0.471178	0.006590	-0.171735	
463	4.6300	-0.020057	0.109020	0.149448	0.003480	-0.105359	0.225441	-0.016398	-0.000871	-0.013226	0.003405	-0.145099	-0.074382	0.164180	0.068463	0.160605	0.115505	0.099138	0.082059	0.061091	0.045832	0.199119	0.084051	-0.075288	0.219808	0.006942	0.011933	-0.008365	0.164788	0.096343	0.125786	0.423631	0.037954	0.095605	0.430541	-0.057883	0.090627	0.547942	0.020003	-0.157180	0.470696	0.000648	-0.171818	
464	4.6400	-0.019850	0.108944	0.149475	0.003379	-0.105399	0.225570	-0.016223	-0.000930	-0.013218	0.003357	-0.145111	-0.074641	0.165113	0.066961	0.160622	0.116610	0.098239	0.082090	0.061418	0.045531	0.199112	0.083987	-0.075605	0.220111	0.007090	0.011864	-0.008310	0.166282	0.094807	0.125851	0.424345	0.031625	0.095719	0.429415	-0.064359	0.090039	0.547569	0.012295	-0.157535	0.470311	-0.005760	-0.171811	
465	4.6500	-0.019561	0.108879	0.149495	0.003275	-0.105440	0.225706	-0.016030	-0.001015	-0.013201	0.003371	-0.145170	-0.074653	0.166168	0.065348	0.160603	0.117687	0.097274	0.082101	0.061765	0.045241	0.199152	0.083925	-0.075926	0.220451	0.007326	0.011789	-0.008244	0.167766	0.093220	0.125875	0.424886	0.025207	0.095704	0.428112	-0.070984	0.089483	0.547146	0.004326	-0.157847	0.469909	-0.012530	-0.171769	
466	4.6600	-0.019151	0.108809	0.149534	0.003177	-0.105478	0.225841	-0.015821	-0.001141	-0.013184	0.003453	-0.145271	-0.074432	0.167256	0.063691	0.160445	0.118689	0.096252	0.082069	0.062157	0.044927	0.199226	0.083854	-0.076258	0.220802	0.007636	0.011685	-0.008188	0.169218	0.091657	0.125831	0.425219	0.018705	0.095555	0.426625	-0.077737	0.089011	0.546606	-0.003836	-0.158097	0.469364	-0.019538	-0.171773	
467	4.6700	-0.018639	0.108711	0.149616	0.003096	-0.105510	0.225967	-0.015609	-0.001298	-0.013169	0.003533	-0.145359	-0.074183	0.168220	0.062072	0.160148	0.119615	0.095220	0.081986	0.062579	0.044567	0.199288	0.083774	-0.076607	0.221130	0.007952	0.011531	-0.008154	0.170636	0.090172	0.125711	0.425339	0.012056	0.095318	0.424944	-0.084625	0.088632	0.545895	-0.012137	-0.158305	0.468558	-0.026659	-0.171908	
468	4.6800	-0.018094	0.108585	0.149744	0.003040	-0.105531	0.226080	-0.015406	-0.001450	-0.013148	0.003540	-0.145392	-0.074144	0.168982	0.060583	0.159815	0.120511	0.094223	0.081849	0.063018	0.044156	0.199281	0.083694	-0.076969	0.221413	0.008241	0.011329	-0.008138	0.172028	0.088784	0.125536	0.425285	0.005167	0.095064	0.423073	-0.091673	0.088328	0.545011	-0.020522	-0.158492	0.467418	-0.033784	-0.172224	
469	4.6900	-0.017571	0.108461	0.149888	0.003015	-0.105538	0.226179	-0.015210	-0.001547	-0.013118	0.003498	-0.145397	-0.074266	0.169677	0.059297	0.159559	0.121431	0.093283	0.081664	0.063443	0.043705	0.199175	0.083626	-0.077331	0.221647	0.008529	0.011119	-0.008127	0.173412	0.087466	0.125333	0.425114	-0.002039	0.094877	0.420993	-0.098908	0.088038	0.543962	-0.028957	-0.158656	0.465945	-0.040832	-0.172703	
470	4.7000	-0.017089	0.108375	0.150009	0.003020	-0.105530	0.226267	-0.015001	-0.001556	-0.013079	0.003495	-0.145449	-0.074293	0.170422	0.058191	0.159387	0.122418	0.092402	0.081454	0.063851	0.043286	0.199040	0.083588	-0.077667	0.221843	0.008824	0.010949	-0.008120	0.174816	0.086158	0.125117	0.424872	-0.009571	0.094820	0.418642	-0.106330	0.087669	0.542754	-0.037470	-0.158807	0.464215	-0.047780	-0.173264	
471	4.7100	-0.016630	0.108348	0.150069	0.003053	-0.105509	0.226347	-0.014744	-0.001502	-0.013038	0.003566	-0.145555	-0.074147	0.171240	0.057189	0.159245	0.123488	0.091533	0.081233	0.064297	0.042991	0.198970	0.083598	-0.077949	0.222025	0.009111	0.010828	-0.008114	0.176262	0.084781	0.124891	0.424561	-0.017371	0.094910	0.415949	-0.113877	0.087146	0.541402	-0.046131	-0.158970	0.462320	-0.054676	-0.173812	
